<svg version="1.1" id="Layer_1" xmlns="http://www.w3.org/2000/svg" xmlns:xlink="http://www.w3.org/1999/xlink" x="0px" y="0px"
	 viewBox="0 0 434.9 188.2" style="enable-background:new 0 0 434.9 188.2;" xml:space="preserve">
<style type="text/css">
	.st0{fill:#38538F;}
	.st1{fill:#353068;}
</style>
<g>
	<path class="st0" d="M320.2,54.8h-26.5v-6c0-6.1-1.4-11.3-4.3-15.7c-2.9-4.4-7.7-6.6-14.4-6.6c-3.6,0-6.6,0.7-9,2.1
		c-2.3,1.4-4.2,3.2-5.5,5.3c-1.3,2.2-2.2,4.7-2.7,7.5c-0.5,2.9-0.8,5.8-0.8,9c0,3.6,0.1,6.7,0.4,9.2c0.3,2.5,0.9,4.7,1.9,6.5
		c1,1.8,2.6,3.4,4.5,4.8c2,1.4,4.7,2.8,8.2,4.2l20.3,8.1c5.9,2.3,10.7,4.9,14.3,7.9c3.6,3,6.5,6.6,8.4,10.7c2,4.1,3.3,8.7,4,14
		c0.7,5.3,1,11.3,1,18.1c0,7.8-0.8,15-2.3,21.7c-1.6,6.7-4.1,12.4-7.7,17.1c-3.6,4.8-8.3,8.5-14.2,11.3c-5.9,2.8-13.1,4.2-21.6,4.2
		c-6.4,0-12.4-1.1-17.9-3.4c-5.5-2.2-10.3-5.3-14.3-9.2c-4-3.9-7.1-8.5-9.5-13.9c-2.3-5.4-3.5-11.2-3.5-17.4v-9.9h26.5v8.3
		c0,4.9,1.4,9.2,4.3,13.1c2.9,3.9,7.7,5.8,14.4,5.8c4.5,0,8-0.6,10.5-1.9c2.5-1.3,4.4-3.1,5.7-5.5c1.3-2.3,2.1-5.2,2.5-8.7
		c0.3-3.5,0.5-7.3,0.5-11.4c0-4.8-0.2-8.8-0.5-11.9c-0.3-3.1-1.1-5.6-2.2-7.5c-1.1-1.9-2.7-3.5-4.7-4.7c-2-1.2-4.6-2.5-7.9-3.9
		l-19-7.8c-11.4-4.7-19.1-10.9-23-18.6c-3.9-7.7-5.8-17.4-5.8-29c0-6.9,0.9-13.5,2.9-19.7c1.9-6.2,4.7-11.6,8.4-16.1
		c3.7-4.5,8.4-8.1,14.2-10.8c5.7-2.7,12.4-4,20-4c6.6,0,12.6,1.2,18.1,3.6c5.5,2.4,10.1,5.6,14,9.6c3.9,4,6.9,8.4,9,13.4
		c2.1,4.9,3.1,10,3.1,15.2V54.8z"/>
	<path class="st0" d="M397,186.6h-23.4L336,1.6H364l21,129.1h0.5L406.9,1.6h28.1L397,186.6z"/>
	<path class="st0" d="M201.2,25.5c-1.4-3.1-3.1-5.9-5-8.4l-17.6,38.8V143c0,6.4-1.8,11.1-5.3,14.2c-3.6,3-7.8,4.5-12.6,4.5
		c-4.9,0-9.1-1.5-12.6-4.5c-3.6-3-5.3-7.8-5.3-14.2v-8.3l-17,37.4c1.4,1.8,3,3.4,4.7,4.9c4.2,3.7,9,6.5,14.3,8.4
		c5.3,1.9,10.6,2.9,16,2.9c5.4,0,10.7-1,16-2.9c5.3-1.9,10-4.7,14.3-8.4c4.2-3.7,7.7-8.4,10.3-14c2.6-5.6,3.9-12.3,3.9-19.9V45.3
		C205.1,37.8,203.8,31.2,201.2,25.5"/>
	<path class="st1" d="M90.9,54.9H64.4v-6c0-6.1-1.4-11.3-4.3-15.7c-2.9-4.4-7.7-6.6-14.4-6.6c-3.6,0-6.6,0.7-9,2.1
		c-2.3,1.4-4.2,3.2-5.5,5.3c-1.3,2.2-2.2,4.7-2.7,7.5c-0.5,2.9-0.8,5.8-0.8,9c0,3.6,0.1,6.7,0.4,9.2c0.3,2.5,0.9,4.7,1.9,6.5
		c1,1.8,2.6,3.4,4.5,4.8c2,1.4,4.7,2.8,8.2,4.2l20.3,8.1c5.9,2.2,10.7,4.9,14.3,7.9c3.6,3,6.4,6.6,8.4,10.6c2,4.1,3.3,8.8,4,14
		c0.7,5.3,1,11.3,1,18.1c0,7.8-0.8,15-2.3,21.7c-1.6,6.7-4.1,12.4-7.7,17.1c-3.6,4.8-8.3,8.5-14.2,11.3c-5.9,2.8-13.1,4.2-21.6,4.2
		c-6.4,0-12.4-1.1-17.9-3.4c-5.5-2.2-10.3-5.3-14.3-9.2c-4-3.9-7.1-8.5-9.5-13.9C1.2,156.3,0,150.5,0,144.2v-9.9h26.5v8.3
		c0,4.8,1.4,9.2,4.3,13.1c2.9,3.9,7.7,5.8,14.4,5.8c4.5,0,8-0.7,10.5-1.9c2.5-1.3,4.4-3.1,5.7-5.5c1.3-2.3,2.1-5.2,2.5-8.7
		c0.3-3.5,0.5-7.3,0.5-11.4c0-4.8-0.2-8.8-0.5-12c-0.4-3.1-1.1-5.6-2.2-7.5c-1.1-1.9-2.7-3.5-4.7-4.7c-2-1.2-4.6-2.5-7.9-3.9
		l-19-7.8C18.7,93.6,11,87.4,7.1,79.7c-3.9-7.7-5.8-17.4-5.8-29c0-6.9,1-13.5,2.9-19.7c1.9-6.2,4.7-11.6,8.4-16.1
		c3.7-4.5,8.4-8.1,14.2-10.8c5.7-2.7,12.4-4,20-4c6.6,0,12.6,1.2,18.1,3.6c5.5,2.4,10.1,5.6,14,9.6c3.9,4,6.9,8.4,9,13.4
		c2.1,4.9,3.1,10,3.1,15.2V54.9z"/>
	<path class="st1" d="M142.7,45.3c0-6.4,1.8-11.1,5.3-14.2c3.6-3,7.8-4.5,12.6-4.5c0.7,0,1.4,0,2.1,0.1L174,2c-4.4-1.3-8.8-2-13.3-2
		c-5.4,0-10.7,1-16,2.9c-5.3,1.9-10.1,4.7-14.3,8.4c-4.2,3.7-7.7,8.4-10.3,14.2c-2.6,5.7-3.9,12.3-3.9,19.8V143
		c0,7.6,1.3,14.3,3.9,19.9c1.6,3.4,3.4,6.4,5.6,9.2l17-37.4V45.3z"/>
</g>
</svg>
